<?xml version="1.0" encoding="utf-8"?>
<svg xmlns="http://www.w3.org/2000/svg" xmlns:xlink="http://www.w3.org/1999/xlink" version= "1.1" height="20px"  viewBox="310 678 100 100">
<g id="layer1">
<g style="fill:rgb(255, 196, 80); fill-opacity:1.0; stroke-linejoin: miter">
<path d="M318.3734,679.9098C314.78854,679.9098,311.88242,682.8159,311.88232,686.40076C311.88223,689.98566,314.7884,692.89197,318.37332,692.892L401.45966,692.8938C401.4597,692.8938,401.45972,692.8938,401.4598,692.8938C405.04465,692.8938,407.9508,689.9877,407.95087,686.40283C407.95096,682.8179,405.0448,679.9116,401.45987,679.9115L318.37357,679.9098C318.37354,679.9098,318.37347,679.9098,318.3734,679.9098 Z"/>
</g>
<g style="fill:rgb(255, 196, 80); fill-opacity:1.0; stroke-linejoin: miter">
<path d="M318.37344,721.45306C314.7886,721.45306,311.88242,724.3592,311.88232,727.94403C311.88223,731.529,314.78836,734.43524,318.3733,734.43536L401.4596,734.43713C401.45966,734.43713,401.4597,734.43713,401.45978,734.43713C405.04462,734.43713,407.9508,731.53107,407.95087,727.94617C407.95096,724.36127,405.04486,721.45496,401.45993,721.4549L318.3736,721.45306C318.37357,721.45306,318.37354,721.45306,318.37344,721.45306 Z"/>
</g>
<g style="fill:rgb(255, 196, 80); fill-opacity:1.0; stroke-linejoin: miter">
<path d="M318.37344,762.9963C314.7886,762.9963,311.88242,765.9024,311.88232,769.48724C311.88223,773.0722,314.78836,775.97845,318.3733,775.9786L401.4596,775.98047C401.45966,775.98047,401.4597,775.98047,401.45978,775.98047C405.04462,775.98047,407.9508,773.07434,407.95087,769.4895C407.95096,765.90454,405.04486,762.9983,401.45993,762.9982L318.3736,762.9963C318.37357,762.9963,318.37354,762.9963,318.37344,762.9963 Z"/>
</g>
</g>
</svg>